<?xml version="1.0" standalone="no"?>
<!DOCTYPE svg PUBLIC "-//W3C//DTD SVG 20010904//EN"
 "http://www.w3.org/TR/2001/REC-SVG-20010904/DTD/svg10.dtd">
<svg version="1.0" xmlns="http://www.w3.org/2000/svg"
 width="500.000000pt" height="500.000000pt" viewBox="0 0 500.000000 500.000000"
 preserveAspectRatio="xMidYMid meet">

<g transform="translate(0.000000,500.000000) scale(0.100000,-0.100000)"
fill="#000000" stroke="none">
<path d="M2850 4514 c0 -38 5 -51 31 -76 36 -36 49 -27 49 33 0 26 -7 42 -28
62 -40 39 -52 35 -52 -19z"/>
<path d="M3000 4471 c-25 -24 -30 -38 -30 -75 0 -54 17 -60 55 -21 19 18 25
35 25 69 0 25 -5 48 -10 51 -6 4 -24 -7 -40 -24z"/>
<path d="M1801 4437 c-20 -25 -23 -72 -7 -110 17 -41 36 -42 55 -1 15 34 14
59 -4 94 -17 33 -27 37 -44 17z"/>
<path d="M3252 4415 c-24 -30 -30 -98 -12 -125 9 -13 14 -11 35 13 28 32 34
91 12 121 -13 18 -15 17 -35 -9z"/>
<path d="M3078 4393 c-28 -18 -34 -26 -48 -75 -8 -26 -6 -28 19 -28 34 0 78
44 87 88 5 27 4 32 -12 32 -11 0 -31 -8 -46 -17z"/>
<path d="M2539 4348 c-22 -35 -21 -100 1 -122 14 -14 60 35 60 65 0 22 -26 89
-35 89 -3 0 -14 -15 -26 -32z"/>
<path d="M2800 4365 c-20 -24 -18 -86 4 -120 l19 -29 18 23 c26 32 24 84 -4
117 -21 24 -24 25 -37 9z"/>
<path d="M1936 4348 c-19 -26 -21 -77 -4 -113 16 -35 36 -31 54 11 12 28 13
43 4 69 -16 50 -35 61 -54 33z"/>
<path d="M2226 4348 c-9 -12 -16 -35 -16 -51 0 -31 25 -87 40 -87 15 0 40 43
40 69 0 20 -35 91 -45 91 -2 0 -11 -10 -19 -22z"/>
<path d="M3349 4335 c-25 -13 -59 -69 -59 -95 0 -19 61 -3 87 23 12 12 25 37
29 55 6 27 4 32 -12 32 -11 -1 -31 -7 -45 -15z"/>
<path d="M2616 4228 c-30 -30 -36 -43 -36 -77 0 -46 -1 -45 35 -29 44 20 69
90 46 127 -8 12 -16 8 -45 -21z"/>
<path d="M1643 4235 c-43 -19 -60 -51 -34 -65 33 -17 68 -11 100 16 34 28 39
49 15 58 -24 9 -46 7 -81 -9z"/>
<path d="M1790 4197 c0 -69 19 -120 64 -167 102 -109 101 -120 -18 -120 -91 0
-96 1 -146 35 -29 19 -56 35 -61 35 -31 0 25 -63 75 -84 19 -8 84 -22 143 -30
152 -23 192 -45 303 -168 94 -102 120 -145 120 -195 0 -42 -43 -123 -85 -163
-35 -33 -125 -162 -161 -231 -31 -60 -8 -144 70 -262 29 -44 49 -88 57 -125
29 -144 128 -243 265 -266 l39 -7 -3 56 -4 57 -24 -23 c-13 -12 -27 -19 -31
-15 -4 4 -7 33 -8 64 0 31 -7 68 -14 82 -25 44 -87 124 -126 160 -91 86 -129
181 -105 265 14 51 53 89 85 82 17 -4 26 8 60 76 50 103 71 115 149 93 60 -18
106 -21 106 -7 0 5 -14 11 -30 15 -38 7 -50 34 -24 53 10 7 47 22 81 33 89 27
115 43 166 100 60 67 84 134 97 272 13 149 16 159 60 258 20 47 40 100 44 119
5 30 4 32 -10 20 -32 -26 -106 -130 -129 -181 -13 -29 -33 -107 -45 -172 -25
-143 -50 -204 -100 -250 -40 -36 -136 -77 -185 -80 -28 -1 -30 1 -33 39 -1 22
11 89 27 150 17 60 29 111 27 112 -1 1 -12 -4 -24 -13 -35 -24 -59 -83 -67
-159 -9 -80 -40 -154 -58 -136 -15 15 -21 178 -8 228 6 22 32 71 57 108 25 37
52 81 59 98 20 48 36 186 29 237 l-7 45 -13 -30 c-7 -16 -13 -52 -14 -80 -1
-95 -15 -124 -100 -205 -52 -50 -86 -91 -101 -124 l-21 -49 -52 54 c-30 32
-81 71 -125 94 -40 22 -90 56 -110 76 -43 43 -86 127 -107 208 -21 80 -34 87
-34 18z"/>
<path d="M2070 4205 c0 -41 22 -76 61 -96 37 -18 38 -18 44 0 12 39 -24 90
-78 110 -25 10 -27 9 -27 -14z"/>
<path d="M2984 4196 c-44 -44 -45 -66 -1 -66 36 0 79 36 92 78 6 20 3 22 -25
22 -23 0 -42 -10 -66 -34z"/>
<path d="M3163 4212 c-39 -30 -53 -132 -19 -132 15 0 51 38 60 64 7 20 -2 86
-13 86 -3 0 -16 -8 -28 -18z"/>
<path d="M2346 4198 c-20 -28 -21 -98 -1 -124 14 -19 15 -18 35 6 22 28 26 76
8 115 -14 31 -22 31 -42 3z"/>
<path d="M3412 4193 c-27 -26 -32 -39 -32 -77 0 -24 5 -48 10 -51 6 -4 24 7
40 24 31 30 38 72 21 116 -7 19 -10 18 -39 -12z"/>
<path d="M3656 4192 c-20 -39 -20 -53 1 -97 20 -42 27 -43 49 -10 21 31 13 90
-15 118 -19 19 -19 19 -35 -11z"/>
<path d="M1980 4159 c-14 -34 -1 -97 24 -118 23 -19 50 29 43 75 -6 34 -31 74
-47 74 -4 0 -13 -14 -20 -31z"/>
<path d="M3556 4159 c-19 -22 -26 -42 -26 -74 0 -38 2 -43 20 -38 34 9 60 51
60 99 0 54 -17 58 -54 13z"/>
<path d="M2696 4132 c-21 -42 -20 -70 5 -112 20 -33 22 -33 36 -15 31 43 29
90 -6 134 l-19 24 -16 -31z"/>
<path d="M1490 4116 c-15 -40 -5 -78 30 -111 28 -27 28 -27 39 -7 20 37 12 71
-23 110 l-35 37 -11 -29z"/>
<path d="M2219 4103 c-3 -49 5 -71 38 -102 28 -26 37 -30 44 -20 25 39 0 97
-52 124 -27 14 -29 14 -30 -2z"/>
<path d="M3245 4091 c-8 -36 16 -95 44 -111 18 -9 23 -7 32 14 14 30 6 64 -22
99 -27 35 -46 34 -54 -2z"/>
<path d="M1727 4096 c-15 -38 -7 -85 20 -116 25 -30 27 -31 40 -14 23 31 15
72 -20 111 -29 31 -35 34 -40 19z"/>
<path d="M3031 4074 c-21 -26 -25 -46 -21 -94 3 -34 5 -35 35 -16 33 21 48 61
40 103 -7 40 -26 42 -54 7z"/>
<path d="M2126 4019 c-19 -22 -26 -42 -26 -74 0 -38 2 -43 20 -38 34 9 60 51
60 99 0 54 -17 58 -54 13z"/>
<path d="M2510 4031 c0 -20 44 -61 73 -69 66 -17 85 6 42 52 -19 21 -33 26
-70 26 -25 0 -45 -4 -45 -9z"/>
<path d="M3171 4018 c-28 -29 -34 -53 -26 -94 7 -41 26 -44 54 -8 21 27 26 60
15 102 -8 28 -18 28 -43 0z"/>
<path d="M3484 4014 c-4 -15 -1 -78 6 -139 7 -62 10 -138 7 -169 -10 -96 -71
-175 -165 -212 -69 -28 -84 -38 -114 -82 -16 -24 -35 -41 -41 -39 -7 2 -18 21
-25 43 -23 66 -10 129 52 254 51 102 70 170 47 170 -4 0 -16 -19 -25 -43 -9
-23 -38 -74 -66 -112 -27 -38 -50 -81 -51 -95 0 -14 -4 -34 -9 -45 -7 -18 -10
-16 -24 17 -20 47 -20 69 1 194 13 79 14 107 6 125 -11 24 -12 23 -12 -7 -1
-17 -13 -68 -27 -115 -38 -126 -31 -219 26 -359 52 -127 59 -208 24 -275 -65
-120 -76 -147 -81 -196 -4 -38 3 -92 21 -181 14 -70 26 -139 26 -154 0 -55
-25 -107 -98 -196 -40 -51 -81 -106 -90 -123 -20 -37 -21 -138 -3 -180 13 -30
14 -29 32 53 44 200 111 251 417 317 183 39 210 48 231 78 66 94 127 135 236
157 97 19 128 37 199 115 36 41 102 99 146 130 89 63 103 77 63 66 -64 -19
-103 -41 -162 -94 -52 -46 -72 -58 -119 -67 -31 -6 -83 -18 -114 -26 -71 -17
-68 -17 -68 1 0 9 22 37 50 64 61 60 77 95 90 208 13 110 22 147 51 217 23 57
20 84 -6 50 -46 -58 -88 -165 -97 -246 -14 -125 -20 -140 -58 -165 -19 -12
-56 -37 -82 -55 -69 -48 -73 -46 -71 43 1 57 9 94 28 144 15 36 25 68 23 70
-10 11 -30 -19 -68 -104 -42 -94 -43 -95 -35 -175 4 -45 7 -98 6 -120 -2 -104
-113 -170 -231 -136 -28 8 -42 6 -78 -12 -65 -31 -69 -27 -134 122 -48 109
-46 170 9 270 23 41 46 99 52 128 21 100 63 159 184 258 126 103 148 136 166
254 7 41 21 106 32 144 22 73 18 95 -10 58 -9 -13 -20 -20 -24 -16 -4 4 -7 40
-7 79 0 117 -20 175 -36 109z"/>
<path d="M3661 4010 l-34 -22 29 -19 c36 -23 65 -24 111 -3 34 17 34 17 16 36
-30 29 -82 33 -122 8z"/>
<path d="M2900 3937 c0 -39 21 -72 60 -92 25 -13 29 -13 34 1 13 33 5 57 -28
90 -44 44 -66 45 -66 1z"/>
<path d="M1537 3899 c-29 -22 -55 -95 -39 -111 14 -14 62 12 78 43 18 36 19
89 0 89 -7 0 -25 -9 -39 -21z"/>
<path d="M3321 3901 c-16 -29 -13 -79 6 -112 20 -34 33 -33 51 5 16 31 3 83
-28 111 -17 16 -19 16 -29 -4z"/>
<path d="M3657 3904 c-27 -15 -28 -16 -12 -34 23 -26 68 -34 110 -20 42 14 43
22 9 49 -31 25 -68 26 -107 5z"/>
<path d="M2600 3880 c0 -34 22 -70 57 -92 41 -25 58 -14 48 31 -12 56 -105
111 -105 61z"/>
<path d="M3857 3889 c-19 -11 -47 -67 -47 -94 0 -47 93 15 109 73 9 30 8 32
-17 32 -15 0 -35 -5 -45 -11z"/>
<path d="M1290 3880 c-32 -20 52 -75 106 -68 37 4 41 22 10 53 -26 26 -86 34
-116 15z"/>
<path d="M1670 3816 c0 -33 6 -52 26 -75 32 -38 52 -39 60 -4 9 34 -18 84 -57
107 l-29 17 0 -45z"/>
<path d="M1800 3813 c1 -37 58 -83 102 -83 32 0 31 -2 17 39 -12 34 -53 61
-94 61 -17 0 -25 -5 -25 -17z"/>
<path d="M2530 3794 c0 -28 8 -44 34 -70 40 -40 54 -42 61 -11 9 34 -11 75
-47 97 -44 27 -48 26 -48 -16z"/>
<path d="M2870 3754 c0 -37 5 -51 30 -75 37 -37 50 -31 50 25 0 33 -6 48 -28
69 -40 39 -52 35 -52 -19z"/>
<path d="M1300 3749 c0 -22 10 -41 34 -65 44 -44 66 -45 66 -1 0 36 -12 55
-50 81 -37 24 -50 20 -50 -15z"/>
<path d="M4063 3762 c-31 -5 -73 -58 -73 -92 0 -28 1 -28 29 -19 36 13 68 46
76 80 7 30 0 37 -32 31z"/>
<path d="M3413 3745 c-29 -12 -63 -58 -63 -85 0 -15 53 -12 78 6 22 15 52 63
52 84 0 14 -28 12 -67 -5z"/>
<path d="M3810 3736 c0 -54 48 -106 99 -106 17 0 19 4 10 33 -5 17 -22 44 -39
60 -32 29 -70 36 -70 13z"/>
<path d="M1444 3703 c9 -37 60 -83 91 -83 27 0 31 13 15 54 -10 27 -56 56 -91
56 -18 0 -20 -4 -15 -27z"/>
<path d="M3600 3695 c0 -31 46 -82 83 -91 24 -6 27 -3 27 20 0 37 -26 73 -62
85 -44 15 -48 14 -48 -14z"/>
<path d="M1092 3692 l-24 -18 26 -17 c31 -21 95 -22 121 -3 19 14 19 15 1 35
-24 27 -91 28 -124 3z"/>
<path d="M1998 3693 c-25 -6 -7 -38 32 -58 33 -17 96 -20 105 -5 4 6 -7 24
-24 40 -29 29 -63 36 -113 23z"/>
<path d="M3240 3636 c0 -41 29 -80 70 -94 30 -11 30 -10 30 23 0 38 -29 75
-72 93 -27 11 -28 11 -28 -22z"/>
<path d="M1760 3633 c-20 -18 -33 -41 -37 -65 l-6 -37 33 9 c17 5 38 14 46 21
12 10 34 69 34 92 0 17 -42 5 -70 -20z"/>
<path d="M2486 3643 l-30 -16 23 -18 c28 -23 108 -26 135 -6 18 13 17 15 -9
35 -32 26 -78 28 -119 5z"/>
<path d="M1610 3624 c-15 -39 -12 -101 10 -184 19 -74 26 -182 14 -228 l-7
-23 -28 27 c-16 15 -35 51 -45 85 -10 33 -21 59 -26 59 -19 0 -6 -60 27 -124
19 -39 35 -76 35 -84 0 -8 -16 -35 -36 -59 -20 -24 -46 -69 -58 -101 -30 -77
-49 -85 -196 -86 -111 -1 -117 0 -157 28 -32 21 -48 42 -62 80 l-20 51 0 -49
c-1 -63 32 -122 89 -160 51 -34 43 -48 -39 -72 -31 -9 -87 -30 -126 -47 -127
-56 -177 -39 -236 83 -20 41 -41 76 -46 77 -20 7 54 -188 82 -217 38 -39 115
-64 196 -64 59 0 76 6 173 53 59 30 109 51 112 48 7 -7 -32 -83 -64 -124 -13
-18 -40 -43 -60 -55 -19 -12 -30 -24 -24 -26 14 -4 47 13 95 50 64 51 43 -10
-35 -102 -77 -90 -98 -122 -98 -145 1 -15 4 -12 14 11 8 18 42 55 77 84 81 67
89 79 137 181 45 99 95 147 211 206 60 31 87 38 146 41 61 4 80 0 127 -22 70
-33 143 -97 169 -148 11 -22 23 -63 26 -91 7 -70 99 -231 151 -268 41 -28 116
-59 203 -83 130 -36 188 -79 209 -154 14 -51 13 -85 -7 -235 -19 -148 -11
-231 32 -326 20 -42 120 -181 131 -181 1 0 2 13 2 28 -2 58 51 131 145 200 48
36 87 69 87 74 0 17 -27 7 -83 -32 -31 -22 -59 -40 -62 -40 -3 0 -3 19 0 43
l5 42 -32 -65 c-30 -63 -72 -109 -86 -95 -3 3 -7 106 -7 228 -1 246 -7 281
-71 414 -39 82 -121 176 -192 221 -26 17 -77 42 -115 56 -140 53 -192 110
-222 248 -12 54 -31 101 -63 155 -40 66 -55 82 -96 103 -30 14 -74 26 -109 28
l-59 5 5 41 5 41 -34 -40 c-18 -22 -34 -43 -34 -46 0 -9 -76 -20 -94 -13 -37
14 -19 93 34 149 47 49 60 80 60 150 0 40 9 71 35 126 19 41 37 88 41 104 5
25 0 20 -32 -27 -41 -60 -54 -70 -54 -40 0 10 -6 38 -14 63 -8 24 -18 79 -21
122 -7 79 -18 96 -35 51z"/>
<path d="M1880 3604 c0 -28 8 -44 35 -71 37 -37 58 -39 63 -7 5 34 -16 73 -50
94 -44 27 -48 26 -48 -16z"/>
<path d="M2185 3615 c16 -45 17 -170 1 -215 l-15 -45 29 32 c34 38 54 103 46
148 -3 17 -20 46 -37 65 -20 23 -28 28 -24 15z"/>
<path d="M3806 3588 c-24 -33 -20 -82 8 -115 l25 -28 15 37 c20 46 20 52 0 94
-19 40 -27 42 -48 12z"/>
<path d="M1208 3584 c-36 -19 -35 -30 2 -49 37 -19 51 -19 98 1 l37 15 -28 25
c-32 27 -69 30 -109 8z"/>
<path d="M3944 3572 c-43 -34 -55 -83 -30 -117 12 -17 16 -18 31 -5 27 23 46
75 39 109 -7 36 -11 37 -40 13z"/>
<path d="M860 3539 c0 -34 6 -47 36 -77 29 -29 37 -33 45 -21 19 30 10 70 -25
105 -44 44 -56 43 -56 -7z"/>
<path d="M1412 3572 c-16 -11 -8 -34 19 -50 25 -16 90 -18 114 -4 17 9 16 12
-8 36 -20 20 -36 26 -69 26 -24 0 -49 -4 -56 -8z"/>
<path d="M2856 3567 l-29 -13 34 -28 c28 -24 39 -27 77 -23 23 2 46 8 50 12
11 11 -56 65 -81 65 -12 -1 -35 -6 -51 -13z"/>
<path d="M3555 3548 c10 -36 61 -78 95 -78 21 0 30 5 30 16 0 42 -53 84 -105
84 -23 0 -25 -3 -20 -22z"/>
<path d="M2015 3509 c-20 -31 44 -119 86 -119 26 0 25 49 -1 83 -23 28 -76 51
-85 36z"/>
<path d="M4054 3509 c-37 -11 -60 -34 -69 -71 -8 -33 6 -36 59 -14 36 15 66
50 66 78 0 20 -9 21 -56 7z"/>
<path d="M1090 3481 c0 -43 66 -101 115 -101 23 0 12 47 -19 78 -25 25 -96 42
-96 23z"/>
<path d="M2776 3464 c-13 -33 -5 -57 28 -90 37 -37 54 -42 62 -19 10 25 -5 66
-36 96 -32 33 -45 36 -54 13z"/>
<path d="M1401 3459 l-24 -9 23 -25 c28 -29 75 -40 112 -26 34 13 28 35 -13
56 -32 17 -63 18 -98 4z"/>
<path d="M3505 3451 c-32 -14 -55 -46 -62 -84 l-6 -36 34 9 c37 11 79 54 79
83 0 9 0 20 1 25 0 11 -23 12 -46 3z"/>
<path d="M690 3425 c0 -28 50 -85 75 -85 7 0 20 -3 29 -6 12 -5 16 0 16 21 0
29 -48 85 -73 85 -9 0 -22 3 -31 6 -12 5 -16 0 -16 -21z"/>
<path d="M1933 3413 c4 -25 17 -48 37 -65 42 -39 60 -36 60 8 0 42 -45 94 -81
94 -19 0 -21 -4 -16 -37z"/>
<path d="M2690 3421 c-17 -32 -12 -86 11 -115 27 -34 36 -33 48 9 10 38 5 68
-17 103 -18 27 -28 28 -42 3z"/>
<path d="M2930 3409 c0 -41 47 -89 89 -89 29 0 29 1 20 32 -11 40 -24 53 -71
73 l-38 15 0 -31z"/>
<path d="M1007 3423 c-24 -23 6 -124 39 -137 41 -16 47 67 8 113 -26 32 -35
36 -47 24z"/>
<path d="M1260 3399 c0 -37 67 -89 115 -89 22 0 18 35 -8 65 -26 31 -107 48
-107 24z"/>
<path d="M3725 3385 c-14 -13 -25 -36 -25 -51 0 -22 3 -25 23 -20 12 3 27 6
33 6 16 0 61 47 67 70 8 32 -66 28 -98 -5z"/>
<path d="M4112 3381 c-37 -34 -47 -67 -32 -106 l11 -30 35 37 c27 30 34 46 34
77 0 52 -11 57 -48 22z"/>
<path d="M1794 3356 c-24 -24 -34 -43 -34 -65 0 -17 2 -31 4 -31 1 0 17 5 35
11 34 12 61 53 61 94 0 35 -25 32 -66 -9z"/>
<path d="M4346 3361 c-20 -21 -28 -40 -28 -65 0 -47 18 -71 40 -54 24 21 44
77 37 109 -9 41 -18 42 -49 10z"/>
<path d="M3580 3361 c-19 -37 -12 -90 16 -118 24 -24 27 -25 36 -9 15 27 12
94 -6 121 -20 30 -32 32 -46 6z"/>
<path d="M883 3329 c7 -36 65 -99 92 -99 10 0 15 10 15 30 0 37 -44 87 -84 96
-29 7 -29 6 -23 -27z"/>
<path d="M3984 3316 c-35 -35 -44 -75 -25 -105 8 -12 16 -8 45 21 30 30 36 43
36 77 0 50 -12 51 -56 7z"/>
<path d="M1200 3310 c0 -29 50 -79 88 -86 28 -6 32 -4 32 15 0 35 -19 62 -55
77 -47 19 -65 18 -65 -6z"/>
<path d="M3329 3298 c-21 -35 -21 -87 2 -114 16 -20 22 -18 42 15 20 34 22 70
5 106 -15 33 -24 32 -49 -7z"/>
<path d="M4224 3316 c-36 -16 -64 -51 -64 -82 0 -30 8 -34 41 -22 38 13 69 53
69 89 0 33 -3 34 -46 15z"/>
<path d="M2560 3282 c0 -37 25 -71 66 -88 44 -18 44 -18 44 14 0 37 -25 71
-66 88 -44 18 -44 18 -44 -14z"/>
<path d="M2911 3293 c-20 -38 -13 -79 20 -114 35 -38 49 -29 49 33 0 27 -8 46
-29 70 -28 31 -28 31 -40 11z"/>
<path d="M1937 3264 c-27 -15 -28 -16 -12 -34 23 -26 68 -34 110 -20 42 14 43
22 9 49 -31 25 -68 26 -107 5z"/>
<path d="M3695 3245 c-14 -13 -25 -31 -25 -39 0 -19 31 -29 64 -20 25 6 76 56
76 75 0 5 -20 9 -45 9 -35 0 -52 -6 -70 -25z"/>
<path d="M1408 3253 c-45 -12 8 -72 71 -80 32 -4 42 -2 47 12 14 36 -66 83
-118 68z"/>
<path d="M3440 3253 c0 -30 24 -85 43 -98 66 -46 93 11 33 71 -30 30 -76 46
-76 27z"/>
<path d="M790 3240 c-12 -7 -11 -12 5 -29 26 -30 83 -45 118 -32 24 9 26 14
17 31 -6 11 -19 24 -30 30 -23 12 -90 13 -110 0z"/>
<path d="M1113 3226 c-33 -28 -49 -72 -38 -106 8 -26 26 -25 53 3 26 28 35 64
24 101 l-8 28 -31 -26z"/>
<path d="M3071 3213 c-25 -50 -99 -133 -117 -133 -8 0 -17 7 -21 16 -6 15 -8
15 -20 -2 -7 -10 -13 -25 -13 -35 0 -13 -12 -18 -52 -23 -29 -3 -72 -9 -96
-12 -63 -9 -101 10 -124 64 -23 50 -33 49 -24 -2 12 -61 45 -89 151 -125 126
-44 154 -64 189 -134 34 -69 45 -175 27 -272 -14 -73 -34 -102 -95 -136 -25
-14 -68 -48 -94 -76 -53 -58 -98 -73 -162 -54 -41 12 -118 75 -139 114 -9 17
-25 27 -52 31 -109 17 -207 79 -253 159 -14 23 -33 76 -44 117 -13 52 -33 95
-65 143 -25 37 -52 86 -58 110 -18 63 -26 65 -36 6 -8 -52 -8 -54 43 -131 35
-52 58 -101 69 -146 48 -190 47 -189 280 -298 200 -93 319 -299 334 -574 l6
-125 17 32 c10 17 43 53 75 80 32 26 61 52 64 56 3 5 9 45 12 89 6 69 4 85
-14 120 -11 22 -23 64 -26 93 -7 69 22 134 107 235 69 83 99 139 100 186 0 17
-12 87 -26 155 -35 168 -30 222 31 334 39 73 70 175 52 175 -4 0 -15 -17 -26
-37z"/>
<path d="M2330 3212 c0 -25 27 -60 60 -77 40 -21 60 -19 60 6 0 33 -19 60 -55
75 -46 19 -65 18 -65 -4z"/>
<path d="M2745 3197 c-8 -40 5 -75 38 -105 25 -24 25 -24 36 -4 24 44 1 105
-49 132 -16 9 -20 6 -25 -23z"/>
<path d="M4284 3182 c-34 -3 -70 -35 -76 -67 -7 -47 100 -17 127 35 13 25 13
28 -3 31 -9 3 -31 3 -48 1z"/>
<path d="M1266 3154 c-37 -25 -38 -28 -21 -40 30 -22 86 -17 120 10 35 29 27
44 -26 52 -26 4 -43 -1 -73 -22z"/>
<path d="M1820 3151 c-15 -30 -12 -94 7 -120 l16 -24 19 23 c22 27 24 88 2
118 -19 27 -30 28 -44 3z"/>
<path d="M2186 3141 c-55 -61 -37 -191 37 -260 l26 -23 -15 48 c-11 34 -14 80
-12 148 3 104 -4 122 -36 87z"/>
<path d="M3991 3147 c-36 -18 -36 -34 -2 -51 36 -19 78 -20 109 -3 22 13 22
14 5 29 -17 16 -66 38 -81 38 -4 0 -18 -6 -31 -13z"/>
<path d="M3220 3146 c0 -26 33 -77 59 -90 69 -36 96 -4 44 54 -25 28 -103 55
-103 36z"/>
<path d="M790 3095 c0 -31 46 -82 83 -91 23 -5 27 -3 27 15 0 34 -26 76 -55
89 -40 18 -55 15 -55 -13z"/>
<path d="M2290 3087 c0 -39 21 -72 60 -92 39 -20 40 -20 40 21 0 28 -8 44 -34
70 -44 44 -66 45 -66 1z"/>
<path d="M910 3108 c0 -47 62 -108 110 -108 19 0 21 4 15 28 -9 39 -46 72 -88
79 -20 3 -37 3 -37 1z"/>
<path d="M4331 3091 c-12 -8 -8 -16 21 -45 30 -30 43 -36 77 -36 50 0 51 12 7
56 -35 35 -75 44 -105 25z"/>
<path d="M1165 3075 c-3 -8 -7 -22 -10 -31 -6 -20 17 -75 43 -97 20 -18 21
-18 31 2 22 41 6 99 -36 126 -21 14 -24 14 -28 0z"/>
<path d="M3715 3076 c-35 -15 -50 -32 -58 -63 -4 -20 -1 -23 27 -23 38 0 71
21 91 60 8 16 15 31 15 35 0 9 -44 4 -75 -9z"/>
<path d="M560 3040 c0 -29 26 -76 52 -94 36 -25 48 -20 48 20 0 26 -8 43 -29
65 -35 34 -71 39 -71 9z"/>
<path d="M3481 3047 c-30 -37 -20 -128 15 -141 25 -10 48 58 34 99 -14 44 -33
60 -49 42z"/>
<path d="M1311 3041 c-40 -25 42 -78 103 -67 43 8 46 27 10 55 -28 22 -88 28
-113 12z"/>
<path d="M3915 3021 c-21 -41 -19 -83 6 -115 25 -32 35 -27 49 24 8 30 7 47
-4 73 -20 48 -33 52 -51 18z"/>
<path d="M2498 3003 c-29 -32 -40 -67 -32 -100 8 -31 27 -29 58 8 26 31 31 55
20 97 -8 29 -15 28 -46 -5z"/>
<path d="M700 3001 c0 -6 12 -25 28 -41 19 -23 39 -33 70 -37 37 -5 42 -3 42
15 0 38 -32 64 -88 70 -35 3 -52 1 -52 -7z"/>
<path d="M3205 2990 c-19 -30 19 -91 73 -119 21 -11 22 -10 22 28 0 31 -7 46
-31 70 -31 32 -53 39 -64 21z"/>
<path d="M4290 2968 c0 -35 34 -74 76 -88 19 -7 38 -10 41 -7 9 9 -17 73 -36
91 -9 9 -32 19 -49 22 -29 6 -32 4 -32 -18z"/>
<path d="M974 2950 c-22 -9 -74 -65 -74 -81 0 -14 58 -11 89 5 15 8 36 27 45
41 18 27 19 25 -26 39 -7 2 -22 0 -34 -4z"/>
<path d="M2275 2910 c-9 -15 47 -69 81 -79 44 -12 61 0 46 34 -18 39 -110 72
-127 45z"/>
<path d="M4261 2871 c-15 -28 -14 -67 4 -100 23 -46 43 -46 56 -2 14 46 3 88
-28 108 -19 13 -23 12 -32 -6z"/>
<path d="M552 2858 c-29 -15 -24 -27 20 -50 31 -16 43 -17 77 -8 47 12 50 19
18 48 -26 24 -76 28 -115 10z"/>
<path d="M2558 2844 c-16 -8 -28 -18 -28 -22 0 -12 56 -42 80 -42 26 0 80 27
80 40 0 14 -55 40 -82 40 -13 -1 -35 -8 -50 -16z"/>
<path d="M3383 2840 c-34 -20 -46 -38 -57 -82 -6 -25 -4 -28 18 -28 40 0 76
39 83 88 6 47 1 50 -44 22z"/>
<path d="M4080 2817 c0 -42 29 -81 71 -96 l32 -11 -6 42 c-6 44 -36 81 -74 93
-21 6 -23 3 -23 -28z"/>
<path d="M2767 2829 c-18 -10 -18 -12 4 -35 17 -19 33 -24 68 -24 68 0 80 12
48 44 -28 28 -85 35 -120 15z"/>
<path d="M3201 2813 c-16 -30 -14 -79 5 -114 18 -35 34 -34 52 5 17 33 10 66
-22 102 -23 28 -23 28 -35 7z"/>
<path d="M1550 2788 l-65 -32 40 -4 c69 -6 289 -53 304 -65 11 -9 9 -14 -14
-23 -27 -11 -26 -11 25 -18 62 -8 88 -20 112 -50 17 -20 17 -19 3 28 -17 61
-76 123 -155 165 -82 44 -160 43 -250 -1z"/>
<path d="M3531 2758 c-16 -42 -65 -74 -143 -94 l-73 -18 42 -9 c88 -20 166 22
183 98 10 46 5 59 -9 23z"/>
<path d="M2440 2744 c0 -3 7 -21 16 -39 23 -48 114 -88 114 -50 0 32 -30 73
-61 84 -35 12 -69 15 -69 5z"/>
<path d="M2752 2716 l-24 -13 33 -27 c28 -23 40 -27 72 -23 58 8 68 23 34 53
-31 27 -78 31 -115 10z"/>
<path d="M1445 2685 c-27 -26 -32 -65 -15 -110 9 -23 13 -25 26 -14 35 29 53
93 38 133 -9 22 -21 20 -49 -9z"/>
<path d="M1624 2669 c-34 -10 -59 -40 -70 -85 -7 -26 -6 -27 27 -21 38 8 89
57 89 87 0 25 -9 29 -46 19z"/>
<path d="M2610 2657 c0 -35 65 -87 110 -87 30 0 25 36 -9 71 -22 21 -39 29
-65 29 -23 0 -36 -5 -36 -13z"/>
<path d="M3865 2640 c-9 -43 2 -84 31 -111 21 -20 27 -21 34 -9 26 40 4 117
-40 140 -16 8 -19 5 -25 -20z"/>
<path d="M4120 2614 c0 -39 5 -51 31 -75 17 -16 35 -29 40 -29 5 0 9 22 9 49
0 43 -4 53 -31 75 -17 14 -35 26 -40 26 -5 0 -9 -21 -9 -46z"/>
<path d="M780 2633 c-40 -15 -60 -46 -60 -95 0 -56 10 -60 51 -19 24 24 29 38
29 75 0 25 -1 46 -2 45 -2 0 -10 -3 -18 -6z"/>
<path d="M4032 2620 c-32 -35 -45 -81 -32 -116 l11 -29 35 37 c36 40 42 68 20
107 l-13 23 -21 -22z"/>
<path d="M1695 2605 c-19 -18 -25 -35 -25 -70 0 -51 14 -58 48 -22 42 44 52
117 16 117 -8 0 -26 -11 -39 -25z"/>
<path d="M3696 2596 c-9 -19 -16 -41 -16 -51 0 -17 27 -75 35 -75 12 0 45 67
45 90 0 26 -25 70 -39 70 -5 0 -16 -15 -25 -34z"/>
<path d="M844 2575 c-21 -33 -12 -84 22 -116 21 -20 27 -21 34 -9 16 25 11 83
-10 118 -11 17 -22 32 -25 32 -2 0 -12 -11 -21 -25z"/>
<path d="M2550 2570 c0 -29 50 -79 88 -86 29 -6 32 -4 32 18 0 36 -26 66 -68
78 -50 13 -52 13 -52 -10z"/>
<path d="M982 2547 c-23 -25 -30 -89 -12 -117 7 -12 12 -11 31 5 29 27 42 63
34 102 -7 39 -23 42 -53 10z"/>
<path d="M3830 2511 c-17 -33 -12 -86 12 -116 l21 -27 13 23 c18 33 17 90 -2
117 -19 27 -30 28 -44 3z"/>
<path d="M2758 2513 c-24 -6 -22 -19 6 -48 28 -28 66 -40 101 -31 22 6 23 9
13 32 -19 41 -69 61 -120 47z"/>
<path d="M3581 2484 c-11 -41 2 -88 33 -113 15 -13 19 -13 27 0 13 21 11 93
-3 110 -7 8 -21 21 -30 28 -15 11 -18 8 -27 -25z"/>
<path d="M1545 2487 c-18 -15 -28 -36 -32 -64 l-6 -43 32 11 c40 14 71 54 71
90 0 36 -27 39 -65 6z"/>
<path d="M1792 2497 c-32 -38 -8 -132 34 -132 27 0 32 69 8 113 -19 35 -26 38
-42 19z"/>
<path d="M1426 2484 c-28 -27 -36 -59 -25 -98 13 -46 28 -54 51 -26 21 26 23
84 4 118 -12 23 -14 23 -30 6z"/>
<path d="M1921 2464 c-22 -28 -28 -88 -11 -114 15 -22 70 40 70 79 0 65 -24
79 -59 35z"/>
<path d="M3380 2458 c-315 -66 -392 -107 -435 -229 -24 -67 -43 -164 -51 -264
-6 -80 -5 -89 8 -77 11 8 17 40 21 107 9 158 68 254 140 227 27 -10 32 -9 46
11 24 36 81 85 119 103 52 24 100 27 172 11 l65 -15 -38 31 c-20 18 -37 35
-37 39 0 3 19 20 42 37 37 28 39 31 17 30 -13 -1 -44 -5 -69 -11z"/>
<path d="M1279 2432 c-25 -12 -38 -28 -49 -59 -17 -51 -11 -60 31 -43 46 20
88 97 61 114 -5 3 -24 -3 -43 -12z"/>
<path d="M2618 2410 c-28 -25 -31 -31 -18 -40 29 -19 87 -11 117 15 27 24 28
25 9 40 -31 24 -72 18 -108 -15z"/>
<path d="M3942 2411 c-31 -28 -47 -65 -40 -97 5 -29 26 -27 58 4 23 24 30 39
30 71 0 22 -4 42 -9 45 -5 3 -23 -7 -39 -23z"/>
<path d="M1655 2417 c-9 -21 14 -85 63 -181 43 -83 87 -118 186 -147 94 -28
184 -87 279 -184 132 -135 153 -196 135 -401 -10 -116 -9 -139 6 -200 45 -180
197 -356 393 -456 46 -23 85 -39 89 -36 3 3 -3 23 -14 45 -16 30 -29 41 -64
51 -114 34 -253 182 -279 297 -11 51 -11 58 8 83 14 20 31 28 58 30 33 3 50
-5 120 -52 45 -31 85 -56 88 -56 3 0 3 19 -1 43 -4 34 -17 55 -68 110 -76 82
-109 147 -132 255 -14 71 -15 92 -3 179 29 220 26 269 -21 328 -27 35 -96 67
-198 95 -47 12 -102 31 -122 41 -21 11 -40 19 -43 19 -3 0 -5 -37 -5 -81 l0
-82 -74 6 c-125 9 -203 55 -222 131 -5 20 -9 24 -15 14 -8 -13 -8 -18 6 -65 9
-32 -8 -29 -50 8 -41 37 -59 67 -90 159 -17 49 -25 61 -30 47z m798 -324 c40
-37 44 -140 7 -185 -15 -19 -21 -21 -43 -11 -29 13 -74 84 -83 129 -8 44 38
98 75 89 14 -4 34 -14 44 -22z"/>
<path d="M2376 2085 c-26 -26 -27 -52 -5 -100 25 -52 56 -80 75 -64 33 28 21
136 -19 164 -27 19 -32 19 -51 0z"/>
<path d="M3786 2334 c-13 -34 -6 -92 15 -118 28 -35 37 -33 46 12 9 50 5 73
-20 100 -24 26 -33 27 -41 6z"/>
<path d="M1485 2308 c-28 -25 -47 -98 -26 -98 42 0 101 61 101 105 0 23 -45
19 -75 -7z"/>
<path d="M3606 2293 c12 -56 114 -124 114 -77 0 51 -51 104 -101 104 -16 0
-18 -5 -13 -27z"/>
<path d="M3275 2279 c-11 -33 3 -84 29 -108 32 -30 46 -20 46 35 0 34 -6 51
-25 69 -30 30 -42 31 -50 4z"/>
<path d="M3181 2276 c-28 -33 -20 -146 10 -146 17 0 43 53 43 87 0 43 -34 82
-53 59z"/>
<path d="M1946 2271 c-2 -3 2 -20 9 -38 15 -35 47 -60 85 -65 34 -4 39 31 8
66 -22 26 -93 52 -102 37z"/>
<path d="M1273 2258 c-29 -8 -73 -49 -73 -69 0 -5 22 -9 48 -9 40 0 53 5 76
29 41 43 16 67 -51 49z"/>
<path d="M3527 2263 c-4 -3 -7 -22 -7 -41 0 -26 9 -43 37 -70 l36 -37 10 28
c12 36 2 73 -28 103 -25 25 -37 29 -48 17z"/>
<path d="M3440 2219 c-39 -53 -26 -153 15 -119 44 36 55 111 20 140 -10 8 -18
4 -35 -21z"/>
<path d="M1580 2200 c-29 -25 -33 -31 -20 -40 29 -19 87 -11 120 17 30 25 31
27 14 40 -31 22 -77 16 -114 -17z"/>
<path d="M2996 2180 c-14 -17 -30 -47 -36 -68 -13 -47 -25 -182 -16 -182 24 0
133 236 122 265 -9 24 -42 17 -70 -15z"/>
<path d="M1321 2163 c-46 -44 -50 -129 -5 -105 35 18 56 50 61 91 7 50 -12 55
-56 14z"/>
<path d="M3735 2154 c8 -47 29 -78 61 -92 34 -16 34 -17 34 27 0 47 -30 86
-74 96 -28 6 -28 6 -21 -31z"/>
<path d="M1693 2128 c-35 -9 -73 -50 -73 -79 0 -41 89 -9 115 41 8 16 15 31
15 33 0 11 -27 13 -57 5z"/>
<path d="M3231 2088 c-27 -28 -35 -75 -21 -113 l11 -30 30 33 c29 32 38 78 23
116 -8 22 -19 20 -43 -6z"/>
<path d="M3527 2103 c-4 -3 -7 -27 -7 -53 0 -37 6 -53 26 -75 32 -34 44 -22
44 46 0 35 -5 51 -23 67 -25 24 -30 26 -40 15z"/>
<path d="M1426 2069 c-30 -36 -32 -45 -10 -53 29 -11 92 13 113 43 25 35 20
41 -35 41 -35 0 -47 -5 -68 -31z"/>
<path d="M1746 2050 c-26 -32 -31 -55 -20 -97 16 -58 77 6 72 76 -2 24 -8 46
-14 48 -6 2 -23 -10 -38 -27z"/>
<path d="M1888 2003 c-15 -16 -30 -41 -34 -57 -7 -28 -6 -28 27 -21 39 8 65
29 85 67 19 37 19 38 -19 38 -23 0 -41 -8 -59 -27z"/>
<path d="M1527 2000 c-23 -19 -53 -87 -42 -98 2 -2 20 1 40 8 37 12 75 59 75
93 0 24 -41 22 -73 -3z"/>
<path d="M2015 1966 c-35 -15 -55 -52 -55 -102 l0 -35 30 16 c41 21 62 57 58
98 -3 35 -3 35 -33 23z"/>
<path d="M2200 1824 c0 -16 16 -60 35 -98 31 -60 35 -77 35 -145 0 -51 -5 -84
-14 -97 -19 -24 -29 -14 -51 54 -9 28 -20 52 -25 52 -16 0 -23 -110 -11 -168
6 -33 23 -74 41 -97 59 -80 81 -124 95 -191 19 -90 19 -189 -1 -247 -29 -86
-113 -132 -169 -93 -11 7 -42 17 -70 21 -27 4 -91 22 -143 41 -176 64 -226 43
-375 -154 -38 -52 -78 -99 -88 -105 -29 -18 -23 -26 14 -18 57 13 93 38 156
110 76 85 112 101 175 77 24 -9 53 -27 65 -40 l22 -24 -45 5 c-66 8 -126 -12
-224 -75 -109 -68 -148 -82 -229 -82 -84 0 -146 -16 -174 -46 -27 -29 -21 -38
15 -24 15 5 76 10 135 10 86 0 121 5 177 23 38 13 83 27 99 31 l30 7 -32 -26
c-18 -15 -33 -30 -33 -34 0 -4 33 0 73 10 85 22 109 23 193 7 81 -15 116 -5
220 64 110 71 150 88 215 88 87 0 124 -17 302 -144 43 -30 53 -33 80 -25 18 5
49 9 71 9 l38 0 -48 32 c-62 42 -67 62 -19 78 42 14 100 7 179 -20 64 -22 101
-17 206 30 41 18 94 35 117 38 66 7 136 -14 174 -55 19 -19 52 -47 74 -63 38
-26 45 -27 123 -22 120 7 101 17 -87 48 -24 4 -55 26 -107 75 -67 63 -77 69
-116 69 -24 0 -74 -6 -113 -14 -38 -8 -111 -20 -162 -26 -111 -14 -137 -4
-171 62 -18 38 -30 48 -79 67 -97 39 -200 109 -281 190 -82 83 -128 152 -170
253 -27 68 -30 111 -22 344 4 104 2 114 -23 165 -14 30 -38 66 -52 79 l-25 23
0 -29z m226 -902 c23 -15 75 -134 72 -164 -6 -65 -67 -59 -110 10 -16 26 -19
44 -16 82 6 64 26 91 54 72z"/>
<path d="M2400 891 c-21 -39 -12 -97 20 -131 59 -63 77 -13 31 85 -16 36 -32
65 -35 65 -3 0 -10 -9 -16 -19z"/>
<path d="M2855 1754 c-25 -38 -29 -85 -11 -109 16 -20 16 -20 41 10 15 18 25
43 25 62 0 66 -25 83 -55 37z"/>
<path d="M2195 1692 c-6 -52 -3 -71 16 -119 36 -89 42 -87 37 12 -3 65 -10
101 -25 130 l-21 39 -7 -62z"/>
<path d="M2983 1705 c-24 -21 -26 -26 -13 -35 8 -5 36 -10 61 -10 35 0 51 5
67 23 l22 24 -25 11 c-41 19 -81 14 -112 -13z"/>
<path d="M2948 1588 c-35 -12 -35 -21 -2 -47 31 -24 91 -28 119 -8 22 17 15
30 -29 51 -38 18 -49 19 -88 4z"/>
<path d="M2870 1501 c0 -45 39 -101 71 -101 39 0 14 106 -30 130 -33 17 -41
11 -41 -29z"/>
<path d="M2123 1425 c-12 -68 -6 -126 28 -236 35 -117 36 -199 4 -287 -30 -83
-25 -102 27 -102 39 0 92 52 107 105 34 123 -3 285 -91 402 -19 26 -38 69 -48
110 l-17 68 -10 -60z"/>
<path d="M2475 1280 c-13 -15 -16 -28 -10 -57 11 -61 64 -150 120 -201 48 -44
161 -109 172 -99 2 3 0 23 -6 45 -9 33 -20 45 -68 73 -70 42 -102 82 -87 107
12 18 58 22 107 8 56 -16 27 22 -64 83 -97 66 -133 75 -164 41z"/>
<path d="M2615 1140 c-4 -6 1 -21 12 -32 17 -20 87 -68 98 -68 3 0 5 18 5 40
0 35 -4 42 -27 51 -48 18 -80 22 -88 9z"/>
<path d="M2230 626 c-19 -8 -72 -38 -117 -68 -106 -71 -150 -84 -239 -69 -36
7 -68 10 -71 7 -7 -7 107 -47 167 -58 66 -12 133 -5 272 29 106 26 107 26 190
10 87 -18 150 -21 181 -8 15 5 5 17 -55 61 -110 83 -170 110 -237 109 -31 0
-72 -6 -91 -13z"/>
<path d="M3116 596 c-59 -24 -104 -46 -100 -48 23 -14 100 -22 418 -45 l69 -5
-69 59 c-114 98 -157 103 -318 39z"/>
<path d="M2743 593 c-13 -2 -23 -8 -23 -12 0 -4 26 -22 58 -40 61 -36 225 -75
370 -88 65 -5 72 -4 66 11 -9 25 -34 35 -113 46 -39 5 -108 25 -154 44 -81 34
-160 49 -204 39z"/>
</g>
</svg>
